PathFileType	4	(X/Y/Z)	./resultDataOpenSim/trcMotMarkerGrf/sub09/qtm-04-01.trc
DataRate	CameraRate	NumFrames	NumMarkers	Units	OrigDataRate	OrigDataStartFrame	OrigNumFrames
250.000000	250.000000	13	24	m	250.000000	317	506
Frame#	Time	L.Toe.Tip			R.Toe.Tip			L.Ankle.Lat			R.Ankle.Lat			L.Ankle.Med			R.Ankle.Med			L.Heel			R.Heel			L.Knee.Lat			R.Knee.Lat			L.Knee.Med			R.Knee.Med			L.Thigh.Upper			R.Thigh.Upper			L.ASIS			R.ASIS			V.Sacral			L.Acromium			R.Acromium			C7			L.Elbow			R.Elbow			L.Wrist.Lat			R.Wrist.Lat
		X1	Y1	Z1	X2	Y2	Z2	X3	Y3	Z3	X4	Y4	Z4	X5	Y5	Z5	X6	Y6	Z6	X7	Y7	Z7	X8	Y8	Z8	X9	Y9	Z9	X10	Y10	Z10	X11	Y11	Z11	X12	Y12	Z12	X13	Y13	Z13	X14	Y14	Z14	X15	Y15	Z15	X16	Y16	Z16	X17	Y17	Z17	X18	Y18	Z18	X19	Y19	Z19	X20	Y20	Z20	X21	Y21	Z21	X22	Y22	Z22	X23	Y23	Z23	X24	Y24	Z24

317	1.264	0.22253701	-0.022093469	0.023910899	1.1101411	0.041333523	0.11517599	0.16771164	0.12000761	-0.045300789	0.96109376	0.053357254	0.15291132	0.20228051	0.11727285	0.046134535	0.96629766	0.091779352	0.060769996	0.10556493	0.15231373	0.0020083209	0.89255692	0.032135022	0.10608282	0.4803688	0.40592882	-0.083305615	0.94690459	0.50709024	0.20652351	0.49127091	0.38797717	0.041432766	0.93373348	0.49385719	0.080603112	0.62653004	0.78852776	-0.094971597	0.69108383	0.81955002	0.27286256	0.73967368	0.85953039	-0.05072636	0.75700098	0.89333417	0.18580578	0.58563532	0.93994918	0.075687167	0.77760024	1.3280693	-0.083337972	0.73859206	1.3357522	0.24724316	0.68616665	1.3835981	0.076094013	0.66315535	0.96780842	-0.14777935	0.58259036	1.0112181	0.32815132	0.87740663	0.80444194	-0.12050731	0.69098451	0.75905072	0.35845309
318	1.268	0.22505751	-0.019960609	0.023178501	1.1103437	0.041160344	0.11495307	0.17451729	0.12428534	-0.045826483	0.96144766	0.053083111	0.15267536	0.20920404	0.12074053	0.045536722	0.96665967	0.091666009	0.060486942	0.11347999	0.15835696	0.001507552	0.89265689	0.032189952	0.10599972	0.49173996	0.40473326	-0.08440679	0.95239794	0.50679282	0.20591038	0.5027598	0.38596536	0.040255774	0.93958177	0.49390258	0.080194068	0.63390618	0.78841034	-0.094391718	0.69812473	0.82034954	0.27341383	0.74661641	0.86019898	-0.049778055	0.76358054	0.89404575	0.18640154	0.59237929	0.9406991	0.076215122	0.78454039	1.3287072	-0.082901653	0.74497902	1.3364272	0.24751128	0.69274821	1.3842325	0.076166612	0.66982221	0.96882466	-0.14738728	0.5895986	1.0114411	0.32823266	0.88139938	0.80226899	-0.12086158	0.69899874	0.75962617	0.35852833
319	1.272	0.22783281	-0.017577191	0.022421774	1.1104787	0.041038533	0.11463749	0.18165189	0.12865821	-0.046225808	0.96166486	0.052874578	0.15254059	0.21641654	0.12432182	0.04509976	0.96693413	0.091553572	0.060251003	0.12173347	0.16450101	0.0011234551	0.89270053	0.032225942	0.10595157	0.50332143	0.40350396	-0.085420495	0.95782082	0.50651133	0.20523784	0.51444754	0.38409784	0.039149842	0.94506499	0.49385157	0.079881158	0.64124018	0.7883761	-0.093847731	0.70503795	0.82106668	0.27398057	0.75335158	0.86087807	-0.049010646	0.77006366	0.89473024	0.18705381	0.59887299	0.941544	0.076880401	0.79137094	1.3294219	-0.082498447	0.75133097	1.3371854	0.2477566	0.69928589	1.3848845	0.076189267	0.67645979	0.96990917	-0.14697751	0.59657169	1.0117421	0.32830891	0.88530001	0.80018274	-0.1212549	0.70696049	0.76026973	0.35854934
320	1.276	0.23084628	-0.015057862	0.021606748	1.1105526	0.0409495	0.11440461	0.1890994	0.13312797	-0.046526313	0.96176127	0.052777303	0.15250709	0.22390949	0.1279953	0.044805846	0.96710747	0.091452719	0.060095813	0.13031313	0.17073045	0.00087146446	0.89269761	0.032242007	0.10593955	0.51508916	0.40223245	-0.086337822	0.96315602	0.50625793	0.20461343	0.52650832	0.38252124	0.037997264	0.95015584	0.49370587	0.079666327	0.64852938	0.78842589	-0.093373333	0.71182925	0.82171861	0.27455743	0.7598449	0.8615645	-0.048453377	0.77646568	0.89541316	0.18775258	0.6051868	0.94245062	0.077608443	0.79808827	1.3302092	-0.082130605	0.75764731	1.3380254	0.24797748	0.70575379	1.3855944	0.076217341	0.68305833	0.97105966	-0.14655398	0.60350924	1.0121175	0.32838652	0.8891074	0.79819253	-0.12169261	0.71483684	0.76096595	0.3584968
321	1.28	0.23406566	-0.012516841	0.020709533	1.1105734	0.040879829	0.11433857	0.19687348	0.13769763	-0.046746359	0.96179919	0.052768721	0.15254613	0.23166996	0.13174152	0.04463282	0.96720441	0.091391013	0.060032818	0.13920546	0.17703964	0.00075197644	0.89266361	0.032240316	0.10596098	0.52702363	0.40093747	-0.08714836	0.96834876	0.50607444	0.20414311	0.53893793	0.38128065	0.036820081	0.9548764	0.4934945	0.079540028	0.65573541	0.78855929	-0.092949953	0.71848622	0.82232612	0.27512492	0.76617507	0.86229821	-0.048018954	0.78279317	0.89612437	0.18848562	0.61145666	0.94339078	0.078289111	0.8046888	1.3310663	-0.081800931	0.7639221	1.3389447	0.24817341	0.71211765	1.3864135	0.076290576	0.68960955	0.97227231	-0.14611966	0.61040614	1.0125677	0.32846964	0.8928255	0.7963051	-0.12217997	0.72261084	0.76171244	0.35835915
322	1.284	0.23746788	-0.0099342154	0.019719289	1.1105583	0.040824535	0.11437917	0.20501571	0.1423861	-0.046909558	0.96179568	0.052799603	0.15263149	0.23968145	0.13555583	0.044563752	0.96726069	0.091386871	0.06004676	0.14840638	0.18343175	0.00075821451	0.89261221	0.032227239	0.10601255	0.53912712	0.39965923	-0.08785519	0.97335651	0.50595051	0.203876	0.55145366	0.38026628	0.035799705	0.95928758	0.49326673	0.079488635	0.66280267	0.78878142	-0.092519418	0.72498857	0.82291059	0.27566109	0.7724231	0.86310928	-0.047606233	0.7890456	0.89689361	0.18923813	0.61776115	0.94435944	0.078869247	0.81117681	1.3319898	-0.081514156	0.77014823	1.3399406	0.24834736	0.71837618	1.3873518	0.076403874	0.69610837	0.97353686	-0.14566956	0.61725916	1.0130992	0.32856096	0.89646981	0.79452619	-0.12272306	0.73029653	0.76252313	0.35814478
323	1.288	0.24106404	-0.0071672418	0.018632763	1.1105273	0.040781849	0.11442309	0.21353054	0.14722601	-0.047046197	0.9617538	0.052832462	0.15273995	0.24792954	0.13945409	0.044590589	0.96730513	0.091438734	0.060106178	0.15791787	0.18991042	0.00088597222	0.8925523	0.032214243	0.10608561	0.55139924	0.39843455	-0.088477714	0.97819953	0.50583823	0.20382563	0.56376235	0.37934724	0.035089	0.96346053	0.49306499	0.079497425	0.66970335	0.78909479	-0.092049731	0.73132639	0.82349799	0.27615561	0.77862215	0.86400313	-0.047164963	0.7952209	0.89774049	0.18999342	0.62409282	0.94537098	0.079357392	0.81756612	1.3329746	-0.081274252	0.77632388	1.3410107	0.24850308	0.72454994	1.3883862	0.076526393	0.70254862	0.97483999	-0.14519839	0.62406903	1.0137147	0.32866256	0.9000641	0.79286421	-0.12333396	0.73792693	0.76341464	0.35787468
324	1.292	0.24490154	-0.0040543831	0.017460337	1.1104925	0.040747258	0.1144269	0.22234672	0.15223095	-0.047164953	0.96169524	0.052852968	0.15284158	0.25640947	0.14345901	0.044703508	0.96736177	0.091526391	0.060176762	0.16773837	0.19646845	0.0011388376	0.89249149	0.032211408	0.10616053	0.56381114	0.3972865	-0.089025551	0.98293521	0.50572584	0.20398558	0.57582116	0.3785103	0.034682423	0.96745759	0.49290204	0.079551423	0.67644673	0.7894923	-0.09156217	0.73750016	0.82412292	0.27661069	0.78478597	0.86497225	-0.046690354	0.80132019	0.89866964	0.19073601	0.6304081	0.94644104	0.079768528	0.82386426	1.3340155	-0.081081124	0.78245472	1.3421524	0.24864171	0.73064362	1.3895017	0.076638435	0.70891919	0.97617508	-0.14470744	0.63083905	1.0144086	0.32877824	0.90361948	0.79133036	-0.12401967	0.74553324	0.76439646	0.35756805
325	1.296	0.2490455	-0.00048975565	0.016225623	1.1104574	0.040714006	0.11440658	0.23136111	0.15737306	-0.047233867	0.96164492	0.0528618	0.15290295	0.26512293	0.14758027	0.044876818	0.96745319	0.0916191	0.060232071	0.17786138	0.20308488	0.0015265114	0.89243745	0.032219728	0.10621206	0.5763081	0.39623258	-0.089477021	0.98754282	0.50562284	0.20426519	0.58778428	0.37782363	0.034480178	0.9713287	0.49276233	0.079636878	0.68305657	0.78996309	-0.091104986	0.7435034	0.82482511	0.27703254	0.79092231	0.86600825	-0.04620069	0.80735026	0.89967852	0.19145148	0.63665126	0.94757843	0.08010967	0.83005706	1.3351088	-0.080931418	0.7885449	1.3433647	0.24876242	0.73664641	1.3907004	0.076745326	0.71521122	0.97754307	-0.14420231	0.63756867	1.0151726	0.32891303	0.90711379	0.78993269	-0.12476299	0.75313617	0.76547275	0.35723874
326	1.3	0.25356257	0.0035434771	0.014953126	1.1104222	0.040678816	0.114384	0.24050106	0.16260002	-0.047208217	0.96162583	0.052862362	0.15289409	0.27407265	0.15181129	0.045080594	0.96759285	0.091693039	0.060259091	0.18827564	0.20972992	0.0020484688	0.89239217	0.032231786	0.10622411	0.588834	0.39529436	-0.089795034	0.99191649	0.50549674	0.20450809	0.59985833	0.37731138	0.034379559	0.97511456	0.4926206	0.079740097	0.68955926	0.79050246	-0.090720794	0.74931665	0.82564173	0.27742626	0.79702962	0.86711099	-0.045716995	0.81332146	0.90076835	0.19212537	0.6427504	0.94878614	0.080404703	0.83612429	1.3362523	-0.08081781	0.79458783	1.3446463	0.24886551	0.74257214	1.3919742	0.076855352	0.72142141	0.97894539	-0.14369007	0.64425079	1.0160033	0.32906867	0.91051097	0.78867129	-0.12553018	0.7607475	0.7666472	0.35689797
327	1.304	0.25851258	0.0079803296	0.013663767	1.1103863	0.040644816	0.11436241	0.24975198	0.16787335	-0.047079527	0.9616766	0.052861294	0.15278945	0.28326376	0.15613856	0.045299172	0.96777467	0.091745012	0.06025811	0.19896343	0.21637322	0.0026748998	0.89235016	0.032240021	0.10619881	0.60136683	0.39451049	-0.089974024	0.99601621	0.5052863	0.20466045	0.6122361	0.37690946	0.034299526	0.97884714	0.49246029	0.079844238	0.69598258	0.79111677	-0.090405259	0.7549256	0.82659968	0.27779523	0.80310426	0.86828732	-0.045248241	0.81924253	0.90194418	0.19274653	0.64862153	0.95006097	0.080700924	0.84206615	1.3374455	-0.080729102	0.80057335	1.3459964	0.24895261	0.74847315	1.3932855	0.076951538	0.7275428	0.98038208	-0.14317409	0.65087882	1.0169032	0.32924345	0.91380095	0.78754018	-0.12629415	0.7683741	0.76792492	0.3565544
328	1.308	0.26393891	0.012727031	0.012374176	1.1103491	0.040617094	0.11433703	0.25916067	0.17318123	-0.046875865	0.96182109	0.052880499	0.15259198	0.29270265	0.16054562	0.04552275	0.96797442	0.091785668	0.06023784	0.20990388	0.22299121	0.0033458217	0.89230534	0.032243653	0.10615054	0.6139164	0.39393733	-0.090060217	0.9999118	0.50497163	0.20482974	0.62498067	0.37654587	0.034213324	0.98254596	0.49228033	0.079934033	0.70235518	0.79182552	-0.090070827	0.76034036	0.82770864	0.27813903	0.80914215	0.86954003	-0.044794436	0.82511742	0.90320558	0.19331102	0.65421969	0.95139681	0.081038575	0.84789953	1.3386917	-0.08065845	0.80649872	1.3474149	0.24902468	0.75437662	1.3946036	0.07700987	0.73356399	0.9818513	-0.14264973	0.65745226	1.0178743	0.32943543	0.91699848	0.78653253	-0.12703478	0.77601938	0.7693094	0.35621259
329	1.312	0.26985506	0.017712083	0.011095736	1.1103087	0.040596672	0.11430791	0.26879039	0.17850972	-0.04662414	0.96199239	0.052949446	0.15236968	0.30238934	0.16501494	0.045734493	0.96816436	0.091823779	0.060208451	0.22107932	0.22956602	0.0039888752	0.89225781	0.032247534	0.10608946	0.62648294	0.39361909	-0.090107403	1.00363	0.50458386	0.20511119	0.63789497	0.37624731	0.034189965	0.98621447	0.49208975	0.080015032	0.70870582	0.79264736	-0.089609063	0.76559415	0.82895698	0.27845206	0.81513484	0.87086404	-0.044362062	0.83094666	0.90454043	0.19382186	0.65962328	0.95278893	0.08141111	0.85363725	1.3399938	-0.080611809	0.81236636	1.3489009	0.24908179	0.76023886	1.395949	0.077035517	0.73947942	0.98334966	-0.14210951	0.66397665	1.018916	0.32964288	0.92011634	0.7856465	-0.12774175	0.78368409	0.77079957	0.35587206
